<?xml version="1.0" encoding="utf-8"?>
<!-- Generator: Adobe Illustrator 23.0.1, SVG Export Plug-In . SVG Version: 6.00 Build 0)  -->
<svg version="1.1" id="Layer_1" xmlns="http://www.w3.org/2000/svg" xmlns:xlink="http://www.w3.org/1999/xlink" x="0px" y="0px"
	 viewBox="0 0 615.327 500" enable-background="new 0 0 615.327 500" xml:space="preserve">
<g>
	<path fill="#E1251B" d="M469.463,249.985c0,89.079-72.266,161.309-161.338,161.309c-89.101,0-161.302-72.229-161.302-161.309
		c0-89.065,72.2-161.279,161.302-161.279C397.197,88.706,469.463,160.921,469.463,249.985 M308.125,0
		C170.034,0,58.103,111.924,58.103,249.985C58.103,388.062,170.034,500,308.125,500c138.062,0,249.985-111.938,249.985-250.015
		C558.111,111.924,446.187,0,308.125,0"/>
	<rect y="199.517" fill="#E1251B" width="615.327" height="101.127"/>
	<g>
		<path fill="#FFFFFF" d="M217.378,276.087h-17.955V224.03h15.298c10.467,0,16.315,5.072,16.315,12.948
			c0,4.992-2.65,8.901-7.261,10.387c6.954,1.171,11.243,6.397,11.243,13.658C235.018,268.204,229.865,276.087,217.378,276.087
			 M214.487,232.843h-4.912v11.477h4.604c4.216,0,6.785-2.181,6.785-5.702C220.965,235.105,218.622,232.843,214.487,232.843
			 M217.144,253.14h-7.569v14.127h6.785c5.233,0,8.352-2.423,8.352-6.793C224.712,255.168,221.045,253.14,217.144,253.14"/>
		<path fill="#FFFFFF" d="M285.75,268.592c-4.216,5.226-10.533,8.505-18.263,8.505c-7.803,0-14.053-3.199-18.423-8.586
			c-3.352-4.136-4.919-8.974-4.919-16.001v-28.488h10.145v28.568c0,8.901,5.16,14.749,13.117,14.749
			c8.191,0,13.19-5.848,13.19-14.749v-28.568h10.145v28.173C290.742,259.384,289.417,264.068,285.75,268.592"/>
		<path fill="#FFFFFF" d="M315.564,277.097c-8.659,0-15.298-5.38-17.794-11.001l8.667-4.919c2.262,4.45,5.307,6.558,9.676,6.558
			c4.055,0,6.632-2.891,6.632-6.639c0-3.433-2.028-5.46-7.415-8.271l-6.163-3.206c-5.856-3.037-8.666-7.803-8.666-13.029
			c0-8.117,6.793-13.585,15.379-13.585c7.254,0,12.487,3.36,14.829,8.981l-8.513,4.604c-1.325-2.73-3.199-4.604-6.478-4.604
			c-3.272,0-5.38,1.793-5.38,4.37c0,2.891,2.342,4.216,6.866,6.397l5.782,2.811c6.551,3.206,9.75,8.352,9.75,15.298
			C332.735,270.78,325.95,277.097,315.564,277.097"/>
		<polygon fill="#FFFFFF" points="341.477,276.087 341.477,224.023 373.793,224.023 373.793,233.077 351.629,233.077 
			351.629,243.925 369.884,243.925 369.884,253.06 351.629,253.06 351.629,266.791 375.74,266.791 375.74,276.087 		"/>
		<path fill="#FFFFFF" d="M399.078,277.097c-8.659,0-15.298-5.38-17.794-11.001l8.659-4.919c2.269,4.45,5.314,6.558,9.684,6.558
			c4.062,0,6.632-2.891,6.632-6.639c0-3.433-2.028-5.46-7.415-8.271l-6.17-3.206c-5.848-3.037-8.659-7.803-8.659-13.029
			c0-8.117,6.793-13.585,15.379-13.585c7.254,0,12.487,3.36,14.829,8.981l-8.513,4.604c-1.317-2.73-3.199-4.604-6.478-4.604
			c-3.272,0-5.38,1.793-5.38,4.37c0,2.891,2.342,4.216,6.866,6.397l5.775,2.811c6.559,3.206,9.757,8.352,9.757,15.298
			C416.25,270.78,409.465,277.097,399.078,277.097"/>
	</g>
</g>
</svg>
