<?xml version="1.0" encoding="UTF-8"?>
<svg
   xmlns="http://www.w3.org/2000/svg"
   xmlns:xlink="http://www.w3.org/1999/xlink"
   id="svg2"
   height="630"
   width="800">
  <defs
     id="defs2941">
    <g
       id="rail"
       transform="matrix(0.2,0,0,0.2,-37.2,-92)">
<g style="fill:#808080">
      <rect
         id="body"
         y="477.49323"
         x="186.32202"
         height="24.131897"
         width="90.994476" />
      <circle
         id="boiler"
         r="10"
         cy="481.526"
         cx="231.8686" />
<g style="stroke:#ffffff;stroke-width:3">
      <circle
         id="wheel1"
         r="10"
         cy="503.526"
         cx="201.8686" />
      <circle
         id="wheel2"
         r="10"
         cy="503.526"
         cx="231.8686" />
      <circle
         id="wheel3"
         r="10"
         cy="503.526"
         cx="261.8686" />
</g>
      <rect
         id="chimney"
         y="461.22095"
         x="255.97266"
         height="23.334524"
         width="14.142136" />
</g>
      <rect
         id="cabin"
         style="fill:none;stroke:#808080;stroke-width:4"
         y="462.04932"
         x="188.32202"
         height="20"
         width="20" />
    </g>
    <circle
       id="intersection"
       style="fill:#ffffff;stroke:#000000;stroke-width:1.5"
       r="4" />
  </defs>
<g style="fill:none">
<g style="stroke:#00a77e;stroke-width:4.5">
<g style="stroke-linecap:square">
  <line
     id="line4011"
     y2="95.4916"
     x2="422.1756"
     y1="97.95092"
     x1="417.8222" />
  <line
     id="line4015"
     y2="215.14417"
     x2="441.39514"
     y1="215.4823"
     x1="436.40659" />
  <line
     x1="434.90787"
     y1="136.19771"
     x2="439.64938"
     y2="134.61078"
     id="line4001" />
  <line
     x1="305.32886"
     y1="287.48431"
     x2="307.38824"
     y2="282.9281"
     id="line3115" />
  <line
     x1="356.08047"
     y1="377.51929"
     x2="361.06784"
     y2="377.87479"
     id="line3079" />
  <line
     x1="347.27707"
     y1="348.74243"
     x2="346.56625"
     y2="353.69165"
     id="line3089" />
  <line
     x1="353.93457"
     y1="241.71635"
     x2="358.83221"
     y2="240.70984"
     id="line2431" />
  <line
     id="line107"
     y2="336.62637"
     x2="505.10571"
     y1="331.95319"
     x1="506.88361" />
  <path
     d="M 506.81148,331.44303 C 466.13469,312.08575 459.33377,270.3407 453.09296,259.24029"
     id="path3660" />
  <line
     x1="361.74396"
     y1="279.72298"
     x2="366.62909"
     y2="278.6573"
     id="line3023" />
  <line
     x1="343.76862"
     y1="203.12971"
     x2="348.56604"
     y2="201.72096"
     id="line3027" />
  <line
     x1="345.75699"
     y1="298.6188"
     x2="346.39227"
     y2="293.6593"
     id="line3031" />
  <line
     x1="667.3808"
     y1="252.53415"
     x2="667.16693"
     y2="247.53873"
     id="line3035" />
  <line
     x1="667.3808"
     y1="252.53415"
     x2="667.59467"
     y2="257.5296"
     id="line3037" />
  <line
     x1="709.78802"
     y1="286.78555"
     x2="714.77203"
     y2="287.18518"
     id="line3039" />
  <line
     x1="641.44244"
     y1="293.32196"
     x2="641.48779"
     y2="298.32172"
     id="line3045" />
  <line
     x1="678.49725"
     y1="293.59357"
     x2="678.06506"
     y2="288.61224"
     id="line3047" />
  <line
     x1="606.44623"
     y1="294.70132"
     x2="606.66986"
     y2="289.70633"
     id="line3051" />
  <line
     x1="387.82269"
     y1="297.99326"
     x2="388.65228"
     y2="302.92395"
     id="line3057" />
  <line
     x1="357.76712"
     y1="124.07257"
     x2="361.8139"
     y2="127.00914"
     id="line3065" />
  <line
     x1="325.92618"
     y1="327.73737"
     x2="320.97079"
     y2="327.07108"
     id="line3069" />
  <line
     x1="330.82336"
     y1="304.97116"
     x2="325.89139"
     y2="304.14963"
     id="line3071" />
  <line
     x1="355.29678"
     y1="414.59375"
     x2="350.52429"
     y2="416.08481"
     id="line3085" />
  <line
     x1="528.63104"
     y1="287.61551"
     x2="528.7334"
     y2="292.61444"
     id="line3093" />
  <line
     x1="553.33429"
     y1="288.77078"
     x2="553.7973"
     y2="283.79227"
     id="line3095" />
  <line
     x1="374.32297"
     y1="475.70078"
     x2="379.24213"
     y2="476.59628"
     id="line3101" />
  <line
     x1="373.41248"
     y1="435.02399"
     x2="378.04141"
     y2="433.13376"
     id="line3103" />
  <line
     x1="325.34683"
     y1="520.80481"
     x2="320.49628"
     y2="522.01819"
     id="line3107" />
  <line
     x1="343.3569"
     y1="552.27783"
     x2="347.72467"
     y2="549.84424"
     id="line3111" />
    <line
       id="line3061"
       transform="matrix(0.8197747,0.5726861,-0.5726861,0.8197747,216.12857,-145.05579)"
       y2="250.79901"
       x2="409.3121"
       y1="246.77078"
       x1="406.3501" />
  <line
     x1="490.57159"
     y1="289.6394"
     x2="490.95251"
     y2="284.65399"
     id="line3075" />
  <line
     id="line95"
     y2="341.55853"
     x2="673.12579"
     y1="336.55981"
     x1="673.23962" />
  <line
     id="line99"
     y2="330.8064"
     x2="615.98376"
     y1="325.80649"
     x1="616.0105" />
  <line
     id="line103"
     y2="340.87204"
     x2="546.73438"
     y1="335.88132"
     x1="546.42975" />
</g>
  <path
     id="path4033"
     d="M 375.34952,44.898118 C 373.51838,44.941407 372.17726,44.961834 370.59266,44.839544 C 360.09598,44.940193 355.82193,67.245579 370.16793,69.802747 C 379.8661,72.145992 391.94427,57.250013 402.1029,70.774681" />
  <path
     d="M 402.14712,70.723788 C 388.83482,86.74798 369.15804,108.37506 357.76711,124.07257"
     id="path4003" />
  <path
     id="path4037"
     d="M 417.75776,97.91969 C 423.49241,108.44579 431.50243,124.57479 434.64216,136.34509" />
  <path
     d="M 47.637129,261.95562 C 54.750767,276.8296 66.140305,292.70645 96.462475,293.10585 C 126.78464,293.50524 118.79376,279.19385 138.99411,277.35679"
     id="path3861" />
  <path
     d="M 434.54656,135.9154 C 437.33581,146.9324 437.0987,150.88706 437.29302,162.65737"
     id="path4039" />
  <path
     id="path4041"
     d="M 437.39378,162.71858 C 438.41579,174.1283 435.42964,203.80616 436.01668,215.57647" />
  <path
     d="M 109.08802,280.20164 C 134.20296,277.78921 159.31789,275.37679 184.43283,272.96437"
     id="path3863" />
  <path
     id="path2983"
     d="M 709.78801,286.78555 C 712.44168,253.2787 689.62811,252.23459 667.38081,252.53415" />
  <path
     id="path2985"
     d="M 356.53195,576 C 352.14026,568.09261 348.43478,561.39143 343.3569,552.27783" />
  <path
     d="M 436.01926,215.44132 C 436.64855,226.75286 439.74956,242.1946 449.17282,254.55399"
     id="path4043" />
  <path
     id="path2800"
     d="M 673.66802,336.55982 C 713.51916,338.76139 713.82327,345.83656 720.16762,358.77763 C 731.98751,382.8876 749.70557,423.95568 722.89703,424.20111 C 719.29513,424.23409 714.73924,421.99876 710.04434,419.81437" />
  <path
     d="M 402.34348,70.920148 C 410.82717,80.85717 411.96459,86.77543 417.85336,98.15302"
     id="path4035" />
<g style="stroke-linecap:round">
  <path
     d="M 328.94669,316.43826 C 329.77013,312.37567 330.55841,308.28058 331.417,303.92381"
     id="path3937" />
  <path
     d="M 343.76862,203.12972 C 349.12098,221.35692 357.93829,264.37669 361.47259,279.54827"
     id="path3933" />
  <path
     d="M 251.95498,269.01905 C 272.1979,271.21368 294.33696,281.22421 304.71014,288.00662"
     id="path3925" />
  <path
     d="M 321.44129,295.5044 C 324.97396,296.92926 326.6075,295.09449 329.91935,295.47603 C 333.01298,295.83244 337.17353,298.34525 343.76862,299.3"
     id="path3927" />
  <path
     d="M 361.47259,279.54827 C 365.75659,294.71985 366.03937,300.12149 360.47623,300.19448"
     id="path3935" />
  <path
     d="M 331.417,303.92381 C 331.68537,301.40604 329.68505,298.95829 321.64169,295.63895 C 316.43091,293.48856 311.46855,291.0227 304.91842,288.14547"
     id="path3929" />
  <path
     d="M 343.76862,299.3 C 338.8982,298.61256 332.08476,300.84211 331.417,303.92381"
     id="path3931" />
  <path
     d="M 343.3569,552.27783 C 338.27901,543.16423 327.90851,529.99615 326.06464,521.31839"
     id="path3800" />
  <path
     d="M 355.29679,414.59376 C 352.34613,405.14929 355.83578,390.34174 355.70851,378.35714"
     id="path3742" />
  <path
     d="M 355.70851,378.35714 C 356.17757,372.87811 356.98479,358.32121 357.69683,352.98786 C 357.95889,351.02499 357.33877,350.00726 355.51169,349.70922 C 351.76598,349.09821 347.21056,348.24587 343.68145,347.63154 C 340.30031,347.04297 339.19984,345.81031 336.35765,345.41247"
     id="path3744" />
  <path
     d="M 336.35765,345.41247 C 331.64341,344.36829 326.42198,344.49101 324.45436,341.4722 C 322.80939,338.94843 325.86524,331.19647 326.47636,328.29934"
     id="path3746" />
  <path
     d="M 406.35011,288.77077 C 417.34923,289.9598 425.85337,286.27875 429.0778,278.13776 C 430.9332,273.45328 432.59541,263.47411 436.44552,258.09395 C 439.20113,254.24324 442.37672,252.48193 444.54093,252.48908 C 448.75978,252.50301 451.15985,256.78831 452.39241,259.85186"
     id="path3654" />
  <path
     d="M 387.8227,297.99327 C 394.46626,296.4692 395.58982,294.80704 398.01601,292.83462 C 399.30014,291.79067 403.68344,288.73138 406.35011,288.77077"
     id="path3652" />
  <path
     id="path2311"
     d="M 673.23962,336.55982 C 654.16324,336.15609 649.56537,325.46519 616.01047,325.3521" />
  <path
     id="path89"
     d="M 546.42973,335.88133 C 528.45128,336.97865 520.528,336.59121 508.13974,331.93601" />
  <path
     id="path2957"
     d="M 184.43283,272.96437 C 218.05666,274.06587 231.71206,266.82441 251.95498,269.01905" />
  <path
     id="path2963"
     d="M 343.76862,299.3 C 357.42401,301.27684 377.39245,299.74814 387.8227,297.99327" />
  <path
     d="M 489.51763,290.13105 C 502.99715,291.20299 515.45288,288.95357 528.63106,287.46404"
     id="path3658" />
  <path
     id="path2973"
     d="M 528.63106,287.46404 C 539.26717,287.24625 540.36508,287.56456 553.33428,288.77077" />
  <path
     id="path2975"
     d="M 553.33428,288.77077 C 566.30347,289.97698 591.76152,294.04376 606.44621,294.70131" />
  <path
     id="path2977"
     d="M 606.44621,294.70131 C 621.13091,295.35886 629.43393,292.82498 641.44244,292.71609" />
  <path
     id="path2979"
     d="M 641.44244,292.71609 C 653.45095,292.60719 667.10635,295.03637 678.49728,294.04795" />
  <path
     id="path2981"
     d="M 678.49728,294.04795 C 689.88821,293.05952 708.48626,297.76029 709.78801,286.78555" />
  <path
     d="M 326.06464,521.31839 C 325.59908,518.77926 323.54027,515.02683 325.7509,511.90152 C 327.3019,509.70876 331.41892,509.40364 333.84739,507.49392 C 337.02912,504.99185 339.64716,501.51704 340.2213,500.72766 C 342.24164,497.94989 349.41247,498.34378 352.58967,498.39375"
     id="path3802" />
  <path
     id="path2995"
     d="M 373.41249,435.02397 C 370.0501,426.7899 358.24745,424.03823 355.29679,414.59376" />
  <path
     d="M 352.43821,498.39375 C 374.60715,498.23105 372.63171,473.87824 375.47108,463.99819"
     id="path3804" />
  <path
     d="M 326.47636,328.29934 C 327.17477,324.08982 327.90192,320.36978 328.94669,316.43826"
     id="path3748" />
  <path
     id="path3011"
     d="M 357.76711,124.07257 C 346.37618,139.77008 331.69149,157.00886 329.35841,170.18505" />
  <path
     id="path3013"
     d="M 329.35841,170.18505 C 327.02532,183.36124 338.41625,184.90251 343.76862,203.12972" />
  <path
     d="M 375.47108,463.99819 C 378.76485,454.11814 376.77487,443.25805 373.41249,435.02397"
     id="path3806" />
  <path
     d="M 460.0319,276.86298 C 461.90627,281.31718 464.74275,285.49171 470.06902,288.25721 C 474.4365,290.52489 481.1452,289.94485 489.35698,290.13105"
     id="path3664" />
  <path
     id="path2313"
     d="M 616.01047,325.3521 C 570.33858,325.23902 564.40819,334.78401 546.42973,335.88133" />
</g>
</g>
<g style="stroke:#ffffff;stroke-width:1.5">
  <path
     id="path3124"
     d="M 47.637129,261.95562 C 54.750767,276.8296 66.140305,292.70645 96.462475,293.10585 C 126.78464,293.50524 118.79376,279.19385 138.99411,277.35679" />
  <path
     id="path3152"
     d="M 709.78801,286.78555 C 712.44168,253.2787 688.72682,251.78394 667.38081,252.53415" />
  <path
     id="path3154"
     d="M 356.53195,576 C 352.14026,568.09261 348.43478,561.39143 343.3569,552.27783" />
  <path
     id="path3178"
     d="M 402.14712,70.723788 C 388.83482,86.74798 369.15804,108.37506 357.76711,124.07257" />
  <path
     id="path3190"
     d="M 109.08802,280.20164 C 134.20296,277.78921 159.31789,275.37679 184.43283,272.96437" />
  <path
     id="path282"
     d="M 673.23962,336.55982 C 654.16324,336.15609 649.56537,325.46519 616.01047,325.3521" />
  <path
     d="M 673.66802,336.55982 C 713.51916,338.76139 713.82327,345.83656 720.16762,358.77763 C 731.98751,382.8876 749.70557,423.95568 722.89703,424.20111 C 719.29513,424.23409 714.73924,421.99876 710.04434,419.81437"
     id="path2779" />
  <path
     d="M 375.34952,44.898118 C 373.51838,44.941407 372.17726,44.961834 370.59266,44.839544 C 360.09598,44.940193 355.82193,67.245579 370.16793,69.802747 C 379.8661,72.145992 391.94427,57.250013 402.1029,70.774681"
     id="path4009" />
  <path
     d="M 417.75776,97.91969 C 423.49241,108.44579 431.50243,124.57479 434.64216,136.34509"
     id="path4025" />
  <path
     id="path4027"
     d="M 434.54656,135.9154 C 437.33581,146.9324 437.0987,150.88706 437.29302,162.65737" />
  <path
     d="M 437.39378,162.71858 C 438.41579,174.1283 435.42964,203.80616 436.01668,215.57647"
     id="path4029" />
  <path
     id="path4031"
     d="M 436.01926,215.44132 C 436.64855,226.75286 439.74956,242.1946 449.17282,254.55399" />
  <path
     d="M 402.34348,70.920148 C 410.82717,80.85717 411.96459,86.77543 417.85336,98.15302"
     id="path4021" />
<g style="stroke-linecap:round">
  <path
     id="path3126"
     d="M 184.43283,272.96437 C 218.05666,274.06587 231.71206,266.82441 251.95498,269.01905" />
  <path
     id="path3128"
     d="M 251.95498,269.01905 C 272.1979,271.21368 294.33696,281.22421 304.71014,288.00662" />
  <path
     id="path3130"
     d="M 321.44129,295.5044 C 324.97396,296.92926 326.6075,295.09449 329.91935,295.47603 C 333.01298,295.83244 337.17353,298.34525 343.76862,299.3" />
  <path
     id="path3132"
     d="M 343.76862,299.3 C 357.42401,301.27684 377.39245,299.74814 387.8227,297.99327" />
  <path
     id="path3134"
     d="M 387.8227,297.99327 C 394.46626,296.4692 395.58982,294.80704 398.01601,292.83462 C 399.30014,291.79067 403.68344,288.73138 406.35011,288.77077" />
  <path
     id="path3136"
     d="M 406.35011,288.77077 C 417.34923,289.9598 425.85337,286.27875 429.0778,278.13776 C 430.9332,273.45328 432.59541,263.47411 436.44552,258.09395 C 439.20113,254.24324 442.37672,252.48193 444.54093,252.48908 C 448.75978,252.50301 451.15985,256.78831 452.39241,259.85186" />
  <path
     id="path3138"
     d="M 460.0319,276.86298 C 461.90627,281.31718 464.74275,285.49171 470.06902,288.25721 C 474.4365,290.52489 481.1452,289.94485 489.35698,290.13105" />
  <path
     id="path3140"
     d="M 489.51763,290.13105 C 502.99715,291.20299 515.45288,288.95357 528.63106,287.46404" />
  <path
     id="path3142"
     d="M 528.63106,287.46404 C 539.26717,287.24625 540.36508,287.56456 553.33428,288.77077" />
  <path
     id="path3144"
     d="M 553.33428,288.77077 C 566.30347,289.97698 591.76152,294.04376 606.44621,294.70131" />
  <path
     id="path3146"
     d="M 606.44621,294.70131 C 621.13091,295.35886 629.43393,292.82498 641.44244,292.71609" />
  <path
     id="path3148"
     d="M 641.44244,292.71609 C 653.45095,292.60719 667.10635,295.03637 678.49728,294.04795" />
  <path
     id="path3150"
     d="M 678.49728,294.04795 C 689.88821,293.05952 708.03561,297.76029 709.78801,286.78555" />
  <path
     id="path3156"
     d="M 343.3569,552.27783 C 338.27901,543.16423 327.90851,529.99615 326.06464,521.31839" />
  <path
     id="path3158"
     d="M 326.06464,521.31839 C 325.59908,518.77926 323.54027,515.02683 325.7509,511.90152 C 327.3019,509.70876 331.41892,509.40364 333.84739,507.49392 C 337.02912,504.99185 339.64716,501.51704 340.2213,500.72766 C 342.24164,497.94989 349.41247,498.34378 352.58967,498.39375" />
  <path
     id="path3160"
     d="M 352.43821,498.39375 C 374.60715,498.23105 372.63171,473.87824 375.47108,463.99819" />
  <path
     id="path3162"
     d="M 375.47108,463.99819 C 378.76485,454.11814 376.77487,443.25805 373.41249,435.02397" />
  <path
     id="path3164"
     d="M 373.41249,435.02397 C 370.0501,426.7899 358.24745,424.03823 355.29679,414.59376" />
  <path
     id="path3166"
     d="M 355.29679,414.59376 C 352.34613,405.14929 355.83578,390.34174 355.70851,378.35714" />
  <path
     id="path3168"
     d="M 355.70851,378.35714 C 356.17757,372.87811 356.98479,358.32121 357.69683,352.98786 C 357.95889,351.02499 357.33877,350.00726 355.51169,349.70922 C 351.76598,349.09821 347.21056,348.24587 343.68145,347.63154 C 340.30031,347.04297 339.19984,345.81031 336.35765,345.41247" />
  <path
     id="path3170"
     d="M 336.35765,345.41247 C 331.64341,344.36829 326.42198,344.49101 324.45436,341.4722 C 322.80939,338.94843 325.86524,331.19647 326.47636,328.29934" />
  <path
     id="path3172"
     d="M 326.47636,328.29934 C 327.17477,324.08982 327.90192,320.36978 328.94669,316.43826" />
  <path
     id="path3174"
     d="M 328.94669,316.43826 C 329.77013,312.37567 330.55841,308.28058 331.417,303.92381" />
  <path
     id="path3176"
     d="M 331.417,303.92381 C 331.68537,301.40604 329.68505,298.95829 321.64169,295.63895 C 316.43091,293.48856 311.46855,291.0227 304.91842,288.14547" />
  <path
     id="path3180"
     d="M 357.76711,124.07257 C 346.37618,139.77008 331.69149,157.00886 329.35841,170.18505" />
  <path
     id="path3182"
     d="M 329.35841,170.18505 C 327.02532,183.36124 338.41625,184.90251 343.76862,203.12972" />
  <path
     id="path3184"
     d="M 343.76862,203.12972 C 349.12098,221.35692 357.93829,264.37669 361.47259,279.54827" />
  <path
     id="path3186"
     d="M 361.47259,279.54827 C 365.75659,294.71985 366.03937,300.12149 360.47623,300.19448" />
  <path
     id="path3188"
     d="M 343.76862,299.3 C 338.8982,298.61256 332.08476,300.84211 331.417,303.92381" />
  <path
     id="path284"
     d="M 616.01047,325.3521 C 570.33858,325.23902 564.40819,334.78401 546.42973,335.88133" />
</g>
<g style="stroke-linecap:square">
    <line
       id="line3230"
       transform="matrix(0.8197747,0.5726861,-0.5726861,0.8197747,216.12857,-145.05579)"
       y2="250.79901"
       x2="409.3121"
       y1="246.77078"
       x1="406.3501" />
  <line
     x1="361.74396"
     y1="279.72298"
     x2="366.62909"
     y2="278.6573"
     id="line3192" />
  <line
     x1="434.90787"
     y1="136.19771"
     x2="439.64938"
     y2="134.61078"
     id="line4023" />
  <line
     x1="343.76862"
     y1="203.12971"
     x2="348.56604"
     y2="201.72096"
     id="line3196" />
  <line
     x1="345.75699"
     y1="298.6188"
     x2="346.39227"
     y2="293.6593"
     id="line3200" />
  <line
     x1="667.3808"
     y1="252.53415"
     x2="667.16693"
     y2="247.53873"
     id="line3204" />
  <line
     x1="667.3808"
     y1="252.53415"
     x2="667.59467"
     y2="257.5296"
     id="line3206" />
  <line
     x1="709.78802"
     y1="286.78555"
     x2="714.77203"
     y2="287.18518"
     id="line3208" />
  <line
     x1="641.44244"
     y1="293.32196"
     x2="641.48779"
     y2="298.32172"
     id="line3214" />
  <line
     x1="678.49725"
     y1="293.59357"
     x2="678.06506"
     y2="288.61224"
     id="line3216" />
  <line
     x1="606.44623"
     y1="294.70132"
     x2="606.66986"
     y2="289.70633"
     id="line3220" />
  <line
     x1="387.82269"
     y1="297.99326"
     x2="388.65228"
     y2="302.92395"
     id="line3226" />
  <line
     x1="357.76712"
     y1="124.07257"
     x2="361.8139"
     y2="127.00914"
     id="line3234" />
  <line
     x1="325.92618"
     y1="327.73737"
     x2="320.97079"
     y2="327.07108"
     id="line3238" />
  <line
     x1="330.82336"
     y1="304.97116"
     x2="325.89139"
     y2="304.14963"
     id="line3240" />
  <line
     x1="490.57159"
     y1="289.6394"
     x2="490.95251"
     y2="284.65399"
     id="line3244" />
  <path
     id="path288"
     d="M 506.81148,331.44303 C 466.13469,312.08575 459.33377,270.3407 453.09296,259.24029" />
  <line
     x1="356.08047"
     y1="377.51929"
     x2="361.06784"
     y2="377.87479"
     id="line3248" />
  <line
     x1="355.29678"
     y1="414.59375"
     x2="350.52429"
     y2="416.08481"
     id="line3254" />
  <line
     x1="347.27707"
     y1="348.74243"
     x2="346.56625"
     y2="353.69165"
     id="line3258" />
  <line
     x1="528.63104"
     y1="287.61551"
     x2="528.7334"
     y2="292.61444"
     id="line3262" />
  <line
     x1="553.33429"
     y1="288.77078"
     x2="553.7973"
     y2="283.79227"
     id="line3264" />
  <line
     x1="374.32297"
     y1="475.70078"
     x2="379.24213"
     y2="476.59628"
     id="line3270" />
  <line
     x1="373.41248"
     y1="435.02399"
     x2="378.04141"
     y2="433.13376"
     id="line3272" />
  <line
     x1="325.34683"
     y1="520.80481"
     x2="320.49628"
     y2="522.01819"
     id="line3276" />
  <line
     x1="343.3569"
     y1="552.27783"
     x2="347.72467"
     y2="549.84424"
     id="line3280" />
  <line
     id="line292"
     y2="341.55853"
     x2="673.12579"
     y1="336.55981"
     x1="673.23962" />
  <line
     id="line296"
     y2="330.8064"
     x2="615.98376"
     y1="325.80649"
     x1="616.0105" />
  <line
     id="line300"
     y2="340.87204"
     x2="546.73438"
     y1="335.88132"
     x1="546.42975" />
  <line
     id="line304"
     y2="336.62637"
     x2="505.10571"
     y1="331.95319"
     x1="506.88361" />
  <path
     id="path286"
     d="M 546.42973,335.88133 C 528.45128,336.97865 519.79018,336.73779 508.13974,331.93601" />
  <line
     x1="305.32886"
     y1="287.48431"
     x2="307.38824"
     y2="282.9281"
     id="line3284" />
  <line
     x1="353.93457"
     y1="241.71635"
     x2="358.83221"
     y2="240.70984"
     id="line2433" />
  <line
     id="line4017"
     y2="215.14417"
     x2="441.39514"
     y1="215.4823"
     x1="436.40659" />
  <line
     id="line4013"
     y2="95.4916"
     x2="422.1756"
     y1="97.95092"
     x1="417.8222" />
</g>
</g>
</g>
  <use
     xlink:href="#intersection"
     y="236.41002"
     x="120.21199"
     id="Bank"
     transform="translate(-73.029248,25.697075)" />
  <use
     xlink:href="#intersection"
     y="246.96437"
     x="254.43283"
     id="Shadwell"
     transform="translate(-70,26)" />
  <use
     xlink:href="#intersection"
     y="290.43826"
     x="398.94669"
     id="Canary Wharf"
     transform="translate(-70,26)" />
  <use
     xlink:href="#intersection"
     y="227.18752"
     x="518.75732"
     id="Canning Town"
     transform="translate(-65.759053,32.664345)" />
  <use
     xlink:href="#intersection"
     y="144.18506"
     x="399.3584"
     id="Bow Church"
     transform="translate(-70,26)" />
  <use
     xlink:href="#intersection"
     y="468.30426"
     x="423.6499"
     id="Greenwich"
     transform="translate(-69.545613,30.089485)" />
  <use
     xlink:href="#intersection"
     y="550"
     x="426.53195"
     id="Lewisham"
     transform="translate(-70,26)" />
  <use
     xlink:href="#intersection"
     y="243.01904"
     x="321.95499"
     id="Limehouse"
     transform="translate(-70,26)" />
  <use
     transform="translate(286.65194,-48.810951)"
     id="use3941"
     x="423.6499"
     y="468.30426"
     xlink:href="#intersection" />
  <use
     transform="translate(-145.53314,33.22008)"
     id="use3943"
     x="254.43283"
     y="246.96437"
     xlink:href="#intersection" />
  <use
     xlink:href="#intersection"
     y="227.18752"
     x="518.75732"
     id="use4007"
     transform="translate(-143.23606,-182.41072)" />
  <use
     transform="translate(-81.309994,-64.66788)"
     id="use4005"
     x="518.75732"
     y="227.18752"
     xlink:href="#intersection" />
  <use
     xlink:href="#intersection"
     y="50"
     x="467.70398"
     id="Stratford"
     transform="translate(-65.556874,20.58494)" />
<g style="font-size:11px;font-family:Verdana">
  <text
     id="text3294"
       y="255.36929"
       x="35.806503">Bank</text>
  <text
     id="text3306"
       y="287.55447"
       x="166.19687">Shadwell</text>
  <text
     id="text3311">
    <tspan
       id="tspan3313"
       y="320.32101"
       x="334.87177">Canary</tspan>
    <tspan
       id="tspan3315"
       y="332.32101"
       x="334.87177">Wharf</tspan>
  </text>
  <text
     id="text3318">
    <tspan
       id="tspan3320"
       y="237.98776"
       x="452.33002">Canning</tspan>
    <tspan
       id="tspan3322"
       y="249.98776"
       x="452.33002">Town</tspan>
  </text>
  <text
     id="text3324">
    <tspan
       id="tspan3326"
       y="272.85507"
       x="371.00272">All</tspan>
    <tspan
       id="tspan3328"
       y="284.85507"
       x="371.00272">Saints</tspan>
  </text>
  <text
     id="text3330">
    <tspan
       id="tspan3332"
       y="199.01816"
       x="351.66989">Devons</tspan>
    <tspan
       id="tspan3334"
       y="211.01816"
       x="351.66989">Road</tspan>
  </text>
  <text
     id="text3336"
       y="288.87943"
       x="319.22366">Poplar</text>
  <text
     id="text3340"
       y="242.11359"
       x="644.18781">Beckton</text>
  <text
     id="text3344">
    <tspan
       id="tspan3346"
       y="286.72977"
       x="719.2666">Gallions</tspan>
    <tspan
       id="tspan3348"
       y="298.72977"
       x="719.2666">Reach</tspan>
  </text>
  <text
     id="text3350"
     style="text-anchor:middle">
    <tspan
       id="tspan3352"
       y="309.93246"
       x="641.20428">Beckton</tspan>
    <tspan
       id="tspan3354"
       y="321.93246"
       x="641.20428">Park</tspan>
  </text>
  <text
     id="text3356"
       y="283.62741"
       x="656.88147">Cyprus</text>
  <text
     id="text3360">
    <tspan
       id="tspan3362"
       y="273.01471"
       x="590.4635">Royal</tspan>
    <tspan
       id="tspan3364"
       y="285.01474"
       x="590.4635">Albert</tspan>
  </text>
  <text
     id="text3366"
       y="316.4761"
       x="381.37491">Blackwall</text>
  <text
     id="text3370"
       y="306.13727"
       x="407.11603">East India</text>
  <text
     id="text3377"
     style="text-anchor:end">
    <tspan
       id="tspan3379"
       y="167.87607"
       x="323.06445">Bow</tspan>
    <tspan
       id="tspan3381"
       y="179.87607"
       x="323.06445">Church</tspan>
  </text>
  <text
     id="text3383">
    <tspan
       id="tspan3385"
       y="128.74854"
       x="365.89374">Pudding</tspan>
    <tspan
       id="tspan3387"
       y="140.74854"
       x="365.89374">Mill Lane</tspan>
  </text>
  <text
     id="text3389"
     style="text-anchor:end"
       y="330.31894"
       x="316.7959">Heron Quays</text>
  <text
     id="text3395"
     style="text-anchor:end"
       y="307.71432"
       x="319.64304">West India Quay</text>
  <text
     id="text3403"
     style="text-anchor:middle">
    <tspan
       id="tspan3405"
       y="267.04837"
       x="494.90125">Royal</tspan>
    <tspan
       id="tspan3407"
       y="279.04837"
       x="494.90125">Victoria</tspan>
  </text>
  <text
     id="text3409"
       y="381.89258"
       x="365.64517">Crossharbour</text>
  <text
     id="text3415"
     style="text-anchor:end"
       y="421.74826"
       x="345.08881">Mudchute</text>
  <text
     id="text3419"
     style="text-anchor:end"
       y="360.29996"
       x="339.13025">South Quay</text>
  <text
     id="text3425"
     style="text-anchor:middle">
    <tspan
       id="tspan3427"
       y="304.08203"
       x="527.51947">Custom</tspan>
    <tspan
       id="tspan3429"
       y="316.08203"
       x="527.51947">House</tspan>
  </text>
  <text
     id="text3431"
     style="text-anchor:middle">
    <tspan
       id="tspan3433"
       y="265.05627"
       x="554.25061">Prince</tspan>
    <tspan
       id="tspan3435"
       y="277.05627"
       x="554.25061">Regent</tspan>
  </text>
  <text
     id="text3437"
       y="481.914"
       x="383.44247">Cutty Sark</text>
  <text
     id="text3444"
       y="507.54346"
       x="359.4382">Greenwich</text>
  <text
     id="text3450">
    <tspan
       id="tspan3452"
       y="430.01114"
       x="381.98972">Island</tspan>
    <tspan
       id="tspan3454"
       y="442.01114"
       x="381.98972">Gardens</tspan>
  </text>
  <text
     id="text3456"
     style="text-anchor:end"
     y="516.05237"
     x="315.77731">Deptford Bridge</text>
  <text
     id="text3462">
    <tspan
       id="tspan3464"
       y="544.78644"
       x="352.15948">Elverson</tspan>
    <tspan
       id="tspan3466"
       y="556.78644"
       x="352.15948">Road</tspan>
  </text>
  <text
     id="text3469"
       y="591.71667"
       x="318.24243">Lewisham</text>
  <text
     id="text3476"
       y="261.97833"
       x="222.22766">Limehouse</text>
  <text
     id="text3482"
       y="275.03568"
       x="285.33054">Westferry</text>
  <text
     id="text3486"
     style="text-anchor:middle">
    <tspan
       id="tspan3488"
       y="258.28973"
       x="107.97646">Tower</tspan>
    <tspan
       id="tspan3490"
       y="270.28973"
       x="107.97646">Gateway</tspan>
  </text>
  <text
     id="text423"
     style="text-anchor:middle">
    <tspan
       id="tspan425"
       y="354.42636"
       x="673.4176">King</tspan>
    <tspan
       id="tspan427"
       y="366.42636"
       x="673.4176">George V</tspan>
  </text>
  <text
     id="text429"
     style="text-anchor:middle">
    <tspan
       id="tspan431"
       y="344.18008"
       x="616.97473">London</tspan>
    <tspan
       id="tspan433"
       y="356.18008"
       x="616.97473">City</tspan>
    <tspan
       id="tspan435"
       y="368.18008"
       x="616.97473">Airport</tspan>
  </text>
  <text
     id="text442"
     style="text-anchor:middle">
    <tspan
       id="tspan444"
       y="354.15054"
       x="553.16821">Pontoon</tspan>
    <tspan
       id="tspan446"
       y="366.15054"
       x="553.16821">Dock</tspan>
  </text>
  <text
     id="text464"
     style="text-anchor:middle">
    <tspan
       id="tspan4084"
       x="494.38309"
       y="350.27475">West</tspan>
    <tspan
       id="tspan4086"
       x="494.38309"
       y="364.02475">Silvertown</tspan>
  </text>
  <text
     id="text2435">
    <tspan
       id="tspan2437"
       y="237.0448"
       x="363.74432">Langdon</tspan>
    <tspan
       y="248.0448"
       x="363.74432"
       id="tspan2462">Park</tspan>
  </text>
  <text
     style="text-anchor:middle"
     id="text3584">
    <tspan
       x="700.99078"
       y="440.09088"
       id="tspan3586">Woolwich</tspan>
    <tspan
       x="700.99078"
       y="452.09088"
       id="tspan3588">Arsenal</tspan>
  </text>
  <text
     id="text3299"
       y="74.307243"
       x="409.84134">Stratford</text>
  <text
     id="text4045">
    <tspan
       id="tspan4060"
       x="383.56616"
       y="40.117252">Stratford</tspan>
    <tspan
       id="tspan4062"
       x="383.56616"
       y="51.117252">International</tspan>
  </text>
  <text
     x="447.33151"
     y="218.99222"
     id="text4066">Star Lane</text>
  <text
     id="text4072"
     y="166.23009"
     x="446.77612">West Ham</text>
  <text
     x="429.84488"
     y="95.88604"
     id="text4074">Stratford High Street</text>
  <text
     id="text4076"
     y="136.79437"
     x="446.22073">Abbey Road</text>
</g>
  <use
     xlink:href="#rail"
     y="464.30426"
     x="463.6499"
     id="use3448"
     transform="translate(-84.055,45.378656)" />
  <use
     xlink:href="#rail"
     y="546"
     x="466.53195"
     id="use3473"
     transform="translate(-90.9549,36.59009)" />
  <use
     xlink:href="#rail"
     y="239.01904"
     x="361.95499"
     id="use3480"
     transform="translate(-118.6693,2.11598)" />
  <use
     transform="translate(227.76513,-7.2459)"
     id="use3939"
     x="463.6499"
     y="464.30426"
     xlink:href="#rail" />
  <use
     xlink:href="#rail"
     y="46"
     x="507.70398"
     id="use3303"
     transform="translate(-43.334468,19.491151)" />
  <use
     transform="translate(-50.992519,-8.588369)"
     id="use4064"
     x="507.70398"
     y="46"
     xlink:href="#rail" />
  <use
     transform="translate(-41.668296,124.46)"
     id="use4078"
     x="507.70398"
     y="46"
     xlink:href="#rail" />
</svg>
